<svg xmlns="http://www.w3.org/2000/svg" width="64" height="64" viewBox="0 0 64 64" fill="none"><path fill-rule="evenodd" clip-rule="evenodd" d="M18 15C18 17.2091 16.2091 19 14 19C11.7909 19 10 17.2091 10 15C10 12.7909 11.7909 11 14 11C16.2091 11 18 12.7909 18 15ZM21.6016 17.5C20.5518 20.6939 17.5452 23 14 23C9.58172 23 6 19.4183 6 15C6 10.5817 9.58172 7 14 7C17.5452 7 20.5518 9.30607 21.6016 12.5H55C56.3807 12.5 57.5 13.6193 57.5 15C57.5 16.3807 56.3807 17.5 55 17.5H21.6016ZM9 29.5C7.61929 29.5 6.5 30.6193 6.5 32C6.5 33.3807 7.61929 34.5 9 34.5H24.3984C25.4482 37.6939 28.4548 40 32 40C35.5452 40 38.5518 37.6939 39.6016 34.5H55C56.3807 34.5 57.5 33.3807 57.5 32C57.5 30.6193 56.3807 29.5 55 29.5H39.6016C38.5518 26.3061 35.5452 24 32 24C28.4548 24 25.4482 26.3061 24.3984 29.5H9ZM9 46.5C7.61929 46.5 6.5 47.6193 6.5 49C6.5 50.3807 7.61929 51.5 9 51.5H42.3984C43.4482 54.6939 46.4548 57 50 57C54.4183 57 58 53.4183 58 49C58 44.5817 54.4183 41 50 41C46.4548 41 43.4482 43.3061 42.3984 46.5H9ZM32 36C34.2091 36 36 34.2091 36 32C36 29.7909 34.2091 28 32 28C29.7909 28 28 29.7909 28 32C28 34.2091 29.7909 36 32 36ZM54 49C54 51.2091 52.2091 53 50 53C47.7909 53 46 51.2091 46 49C46 46.7909 47.7909 45 50 45C52.2091 45 54 46.7909 54 49Z" fill="#1C61E7"></path></svg>