<svg xmlns="http://www.w3.org/2000/svg" width="65" height="64" viewBox="0 0 65 64" fill="none"><g clip-path="url(#clip0_9533_38597)"><path fill-rule="evenodd" clip-rule="evenodd" d="M22.7877 33.5611L34.1135 12.5275C34.606 11.6128 35.9939 11.9627 35.9939 13.0016V29.0352H42.3197C43.0764 29.0352 43.5589 29.843 43.2001 30.5093L31.8744 51.5429C31.3818 52.4576 29.9939 52.1077 29.9939 51.0688V35.0352H23.6681C22.9115 35.0352 22.4289 34.2273 22.7877 33.5611ZM9.26815 18.3117C13.8483 15.898 20.4686 13.5457 29.2818 13.0645L25.8718 19.3973C19.8584 20.1767 15.2948 21.9178 12.0654 23.6197C9.88297 24.7698 8.29681 25.9091 7.27734 26.7374C6.76767 27.1515 6.40024 27.4875 6.17146 27.7074C6.0571 27.8173 5.97751 27.8981 5.93225 27.945C5.90962 27.9685 5.89558 27.9835 5.89009 27.9894L5.88882 27.9908C4.78055 29.2128 2.89177 29.311 1.66269 28.2076C0.429765 27.1008 0.327542 25.204 1.43437 23.9711L3.66677 25.9752C1.43437 23.9711 1.43549 23.9699 1.43664 23.9686L1.43912 23.9658L1.44473 23.9596L1.45851 23.9445L1.49632 23.9035C1.5261 23.8714 1.56505 23.8301 1.61322 23.7802C1.70955 23.6803 1.84286 23.5457 2.01365 23.3815C2.35519 23.0533 2.84713 22.6062 3.49371 22.0808C4.78674 21.0302 6.70058 19.6647 9.26815 18.3117ZM17.6167 31.2677C18.3505 30.9354 19.1494 30.6029 20.0097 30.2841L19.2658 31.6657C18.2921 33.4739 18.5578 35.4907 19.6094 36.9569C18.3314 37.5629 17.3256 38.1501 16.6304 38.5931C16.2407 38.8414 15.9503 39.0433 15.766 39.1761C15.674 39.2425 15.6086 39.2915 15.5707 39.3204C15.5518 39.3348 15.5397 39.3441 15.5347 39.348L15.5331 39.3493C14.2395 40.3773 12.3571 40.1658 11.3241 38.8746C10.2891 37.5808 10.4989 35.6929 11.7927 34.6579L13.6667 37.0005C11.7927 34.6579 11.7935 34.6572 11.7945 34.6565L11.7964 34.6549L11.8009 34.6513L11.812 34.6426L11.8425 34.6186C11.8666 34.5998 11.8981 34.5755 11.9369 34.5459C12.0145 34.4868 12.1215 34.407 12.2569 34.3093C12.5277 34.114 12.9131 33.8472 13.4062 33.533C14.3914 32.9053 15.8133 32.0843 17.6167 31.2677ZM46.722 32.4067L44.5544 36.4322C44.7904 36.5322 45.0196 36.6328 45.2417 36.7334C46.7508 37.4167 47.9226 38.0958 48.7031 38.5931C49.0928 38.8414 49.3832 39.0433 49.5675 39.1761C49.6595 39.2425 49.7249 39.2915 49.7628 39.3204C49.7817 39.3348 49.7938 39.3441 49.7988 39.348L49.8005 39.3494C51.0941 40.3773 52.9764 40.1658 54.0094 38.8746C55.0444 37.5808 54.8346 35.6929 53.5408 34.6579L51.6667 37.0005C53.5408 34.6579 53.5399 34.6572 53.539 34.6565L53.5371 34.6549L53.5326 34.6513L53.5215 34.6426L53.491 34.6186C53.474 34.6054 53.4534 34.5894 53.4291 34.5708C53.4189 34.5629 53.4081 34.5547 53.3966 34.5459C53.319 34.4868 53.212 34.407 53.0766 34.3093C52.8058 34.114 52.4204 33.8472 51.9273 33.533C50.9421 32.9053 49.5202 32.0843 47.7168 31.2677C47.5549 31.1944 47.3899 31.1211 47.2218 31.0479C47.1255 31.506 46.9611 31.9626 46.722 32.4067ZM24.5751 43.8758C25.0039 43.6615 25.4769 43.4497 25.9939 43.2507V50.0171C25.8898 50.0964 25.8195 50.1559 25.7829 50.1879C25.7707 50.1986 25.7623 50.2062 25.7577 50.2103C24.584 51.3519 22.7069 51.342 21.5454 50.1804C20.3739 49.0089 20.3739 47.1094 21.5454 45.9378L23.6473 48.0397C21.5454 45.9378 21.5465 45.9367 21.5475 45.9357L21.5497 45.9335L21.5543 45.929L21.5644 45.919L21.5882 45.8958L21.6143 45.8706L21.6501 45.8368C21.6978 45.7921 21.7584 45.7368 21.8319 45.6725C21.9788 45.5439 22.1778 45.3789 22.4292 45.1904C22.9316 44.8136 23.6466 44.3401 24.5751 43.8758ZM40.5908 43.7933L37.7421 49.0837C37.8588 49.1367 37.9698 49.1898 38.0751 49.2424C38.6466 49.5281 39.0566 49.8047 39.3042 49.9904C39.4278 50.0831 39.51 50.1524 39.5506 50.1879C39.5628 50.1986 39.5712 50.2062 39.5757 50.2103C40.7495 51.3519 42.6265 51.342 43.7881 50.1804C44.9596 49.0089 44.9596 47.1094 43.7881 45.9378L41.6862 48.0397C43.7881 45.9378 43.787 45.9367 43.786 45.9357L43.7838 45.9335L43.7792 45.929L43.7691 45.919L43.7453 45.8958C43.7279 45.8789 43.7073 45.8592 43.6834 45.8368C43.6357 45.7921 43.5751 45.7368 43.5016 45.6725C43.3547 45.5439 43.1556 45.3789 42.9042 45.1904C42.4019 44.8136 41.6869 44.3401 40.7584 43.8758C40.7032 43.8483 40.6474 43.8207 40.5908 43.7933ZM39.9939 13.431V19.485C45.7459 20.3051 50.1364 21.9925 53.2709 23.6402C55.4544 24.7879 57.0413 25.9234 58.061 26.7485C58.5709 27.161 58.9384 27.4954 59.1672 27.7143C59.2816 27.8237 59.3611 27.9042 59.4064 27.9509L59.4341 27.9797L59.4486 27.995L59.4499 27.9964C60.5612 29.2156 62.4502 29.309 63.6765 28.2025C64.9066 27.0926 65.0041 25.1956 63.8941 23.9655L61.6668 25.9752C63.8941 23.9655 63.893 23.9642 63.8918 23.963L63.8894 23.9602L63.8838 23.954L63.87 23.939L63.8321 23.8981C63.8023 23.8663 63.7634 23.8252 63.7152 23.7754C63.6189 23.676 63.4856 23.5421 63.3148 23.3787C62.9733 23.052 62.4814 22.6071 61.835 22.084C60.5423 21.0381 58.6291 19.6783 56.0626 18.3292C52.1937 16.2955 46.8683 14.3016 39.9939 13.431ZM61.6264 26.0116C59.4655 27.9614 59.4408 27.9858 59.4415 27.9871L59.4394 27.9849L61.6264 26.0116Z" fill="#1C61E7"></path></g><defs><clipPath id="clip0_9533_38597"><rect width="64" height="64" fill="white" transform="translate(0.666748)"></rect></clipPath></defs></svg>