<svg xmlns="http://www.w3.org/2000/svg" width="65" height="64" viewBox="0 0 65 64" fill="none"><path fill-rule="evenodd" clip-rule="evenodd" d="M18.3012 24.4377C18.0605 26.0707 16.5447 27.2035 14.909 26.9698C13.2688 26.7355 12.1291 25.2159 12.3634 23.5757L15.3333 24C12.3634 23.5757 12.3636 23.5742 12.3639 23.5725L12.3644 23.569L12.3656 23.5609L12.3685 23.5409L12.3772 23.4855C12.3842 23.4418 12.3937 23.3848 12.4061 23.3154C12.4309 23.1766 12.4673 22.9876 12.5182 22.7556C12.6198 22.2922 12.7804 21.6525 13.024 20.8945C13.5084 19.3876 14.3378 17.361 15.7258 15.3155C18.5758 11.1156 23.6991 7 32.3333 7C40.9674 7 46.0907 11.1156 48.9407 15.3155C50.3287 17.361 51.1581 19.3876 51.6425 20.8945C51.8861 21.6525 52.0467 22.2922 52.1483 22.7556C52.1992 22.9876 52.2356 23.1766 52.2604 23.3154C52.2728 23.3848 52.2823 23.4418 52.2893 23.4855L52.298 23.5409L52.301 23.5609L52.3021 23.569L52.3026 23.5725C52.3029 23.5742 52.3031 23.5757 49.3333 24L52.3031 23.5757C52.5374 25.2159 51.3977 26.7355 49.7575 26.9698C48.1218 27.2035 46.606 26.0707 46.3653 24.4376L46.3648 24.434L46.3642 24.4297L46.3639 24.4277H46.3637C46.3619 24.4164 46.3587 24.397 46.3539 24.3701C46.342 24.3039 46.3208 24.1921 46.2877 24.0413C46.2214 23.739 46.1085 23.285 45.9303 22.7305C45.5709 21.6124 44.9628 20.139 43.9758 18.6845C42.0758 15.8844 38.6991 13 32.3333 13C25.9674 13 22.5907 15.8844 20.6907 18.6845C19.7037 20.139 19.0956 21.6124 18.7362 22.7305C18.558 23.285 18.4451 23.739 18.3788 24.0413C18.3457 24.1921 18.3245 24.3039 18.3127 24.3701C18.3067 24.4033 18.3032 24.4249 18.3017 24.4342L18.3012 24.4377ZM18.3012 24.4377L46.3637 24.4277L46.3648 24.4342L46.3653 24.4376L18.3012 24.4377ZM14.4509 30C10.5199 30 7.33325 33.1867 7.33325 37.1176V44.8824C7.33325 48.8133 10.5199 52 14.4509 52C16.5951 52 18.3333 50.2618 18.3333 48.1176V33.8824C18.3333 31.7382 16.5951 30 14.4509 30ZM50.2156 30C48.0714 30 46.3333 31.7382 46.3333 33.8824V48.1176C46.3333 50.2618 48.0714 52 50.2156 52C54.1466 52 57.3333 48.8133 57.3333 44.8824V37.1176C57.3333 33.1867 54.1466 30 50.2156 30ZM41.4546 35.1213C42.6261 33.9497 42.6261 32.0503 41.4546 30.8787C40.283 29.7071 38.3835 29.7071 37.2119 30.8787L30.3333 37.7574L28.4546 35.8787C27.283 34.7071 25.3835 34.7071 24.2119 35.8787C23.0404 37.0503 23.0404 38.9497 24.2119 40.1213L27.5048 43.4142C29.0669 44.9763 31.5996 44.9763 33.1617 43.4142L41.4546 35.1213Z" fill="#1C61E7"></path></svg>